<?xml version="1.0" standalone="no"?>
<!DOCTYPE svg PUBLIC "-//W3C//DTD SVG 20010904//EN"
 "http://www.w3.org/TR/2001/REC-SVG-20010904/DTD/svg10.dtd">
<svg version="1.0" xmlns="http://www.w3.org/2000/svg"
 width="128.000000pt" height="128.000000pt" viewBox="0 0 128.000000 128.000000"
 preserveAspectRatio="xMidYMid meet">
<metadata>
Created by potrace 1.16, written by Peter Selinger 2001-2019
</metadata>
<g transform="translate(0.000000,128.000000) scale(0.100000,-0.100000)"
fill="#000000" stroke="none">
<path d="M0 640 l0 -640 640 0 640 0 0 640 0 640 -640 0 -640 0 0 -640z m820
307 l175 -102 3 -193 c1 -111 -2 -200 -7 -211 -6 -10 -87 -62 -181 -115 l-170
-98 -163 93 c-89 51 -170 99 -179 107 -16 13 -18 36 -18 206 0 105 4 197 9
205 8 12 338 210 351 211 3 0 84 -46 180 -103z"/>
<path d="M526 909 c-55 -32 -106 -64 -113 -72 -12 -12 2 -24 100 -81 63 -36
120 -66 126 -66 6 0 63 30 127 66 92 53 112 69 103 80 -13 16 -222 134 -235
133 -5 -1 -54 -27 -108 -60z"/>
<path d="M350 611 l0 -138 115 -67 c63 -36 119 -66 125 -66 6 0 10 49 10 139
l0 139 -113 66 c-63 36 -119 66 -125 66 -9 0 -12 -39 -12 -139z"/>
<path d="M793 684 l-113 -66 0 -139 c0 -85 4 -139 10 -139 5 0 62 30 125 66
l115 67 0 138 c0 105 -3 139 -12 139 -7 0 -64 -30 -125 -66z"/>
</g>
</svg>
