<?xml version="1.0" standalone="no"?>
<!DOCTYPE svg PUBLIC "-//W3C//DTD SVG 20010904//EN"
 "http://www.w3.org/TR/2001/REC-SVG-20010904/DTD/svg10.dtd">
<svg version="1.0" xmlns="http://www.w3.org/2000/svg"
 width="400.000000pt" height="400.000000pt" viewBox="0 0 400.000000 400.000000"
 preserveAspectRatio="xMidYMid meet">

<g transform="translate(0.000000,400.000000) scale(0.100000,-0.100000)"
fill="#000000" stroke="none">
<path d="M0 2000 l0 -2000 2000 0 2000 0 0 1999 0 2000 -2000 1 -2000 0 0
-2000z m1985 1616 c244 -83 447 -286 528 -526 14 -41 28 -87 31 -101 6 -26 7
-27 118 -32 137 -6 209 -29 314 -99 139 -93 254 -278 254 -411 0 -50 -35 -87
-83 -87 -45 0 -69 28 -97 119 -39 124 -117 213 -238 269 -50 24 -69 27 -158
27 -99 0 -103 -1 -185 -42 -47 -24 -98 -43 -116 -43 -45 0 -75 40 -71 94 3 36
9 45 54 79 l52 38 -10 42 c-64 286 -304 502 -591 532 -184 19 -397 -69 -532
-218 -56 -62 -138 -211 -150 -272 -6 -29 -5 -30 61 -53 77 -27 168 -82 183
-111 30 -56 -8 -131 -66 -131 -15 0 -66 19 -112 43 -82 41 -86 42 -185 42 -92
0 -107 -3 -167 -31 -157 -74 -249 -221 -249 -394 0 -172 94 -320 249 -394 l66
-31 485 -2 c267 -2 495 -5 507 -8 63 -15 85 -104 38 -150 l-24 -25 -488 0
c-543 0 -547 0 -683 67 -144 70 -264 224 -306 393 -24 96 -15 272 18 362 71
191 234 339 418 382 34 8 64 17 66 19 3 2 14 37 25 78 37 136 143 308 246 399
60 54 167 124 230 151 110 48 179 59 338 56 133 -3 159 -6 230 -31z m483
-1392 c40 -26 54 -77 50 -180 -4 -106 -20 -139 -81 -163 -32 -12 -40 -11 -74
5 -58 29 -78 73 -78 174 0 64 5 95 19 124 32 63 102 80 164 40z m836 -2 c31
-28 46 -79 47 -160 2 -127 -39 -188 -125 -186 -31 1 -46 8 -67 32 -79 89 -59
294 33 332 30 12 88 3 112 -18z m-1109 -162 l0 -175 -37 -3 -38 -3 0 130 c0
72 -3 131 -7 131 -4 0 -17 -10 -30 -22 -23 -21 -23 -21 -38 -2 -22 29 -19 37
37 83 40 32 59 41 82 39 l31 -3 0 -175z m830 0 l0 -175 -37 -3 -37 -3 -3 131
-3 132 -28 -22 c-27 -22 -29 -22 -42 -4 -22 29 -19 38 37 83 40 32 59 41 82
39 l31 -3 0 -175z m-26 -365 c45 -23 65 -77 65 -175 0 -132 -40 -188 -130
-177 -53 6 -79 26 -95 75 -15 45 -14 171 1 218 21 63 97 91 159 59z m-801
-155 c3 -193 2 -202 -41 -198 l-32 3 -3 128 c-1 70 -6 127 -11 127 -5 0 -14
-7 -21 -15 -17 -20 -33 -19 -54 4 -16 18 -14 21 36 65 44 38 59 46 88 44 l35
-3 3 -155z m270 -17 l-3 -178 -35 0 -35 0 -3 128 c-1 70 -5 127 -9 127 -4 0
-14 -7 -24 -16 -21 -18 -46 -13 -56 12 -4 12 8 29 43 60 39 34 57 43 87 44
l37 0 -2 -177z m270 0 l-3 -178 -35 0 -35 0 -3 128 c-1 70 -5 127 -9 127 -4 0
-15 -8 -25 -17 -21 -19 -50 -9 -56 19 -5 26 95 98 135 98 l33 0 -2 -177z
m-607 -303 c36 -20 52 -68 46 -143 -5 -78 -21 -102 -74 -113 -27 -5 -37 -1
-63 24 -31 31 -36 58 -30 142 5 80 61 122 121 90z m183 4 c13 -5 16 -26 16
-130 l0 -124 -25 0 c-25 0 -25 1 -25 90 0 88 -5 101 -27 79 -14 -14 -43 -5
-42 13 0 7 18 28 41 46 45 36 41 34 62 26z m221 -14 c34 -28 41 -144 13 -205
-29 -65 -127 -50 -147 22 -21 75 -6 161 32 188 24 17 78 15 102 -5z m183 -113
l3 -127 -31 0 -30 0 0 91 c0 80 -2 90 -15 79 -18 -15 -45 -6 -45 14 0 19 76
75 98 72 15 -3 17 -20 20 -129z m471 114 c25 -25 35 -76 29 -147 -5 -63 -26
-90 -75 -100 -27 -5 -37 -1 -63 24 -28 29 -30 35 -30 110 0 65 4 84 21 106 26
33 88 37 118 7z m191 -111 l0 -130 -30 0 -30 0 0 90 c0 89 -5 101 -28 78 -9
-9 -15 -9 -27 2 -8 8 -11 20 -7 25 19 27 76 65 98 65 l24 0 0 -130z m-400
-185 c18 -19 25 -40 28 -85 8 -103 -18 -150 -83 -150 -66 0 -90 46 -83 157 3
54 8 69 27 84 33 27 82 24 111 -6z m180 -105 l0 -130 -24 0 c-30 0 -33 8 -30
103 1 42 0 77 -3 77 -2 0 -13 -4 -23 -10 -13 -7 -21 -5 -31 6 -11 13 -7 21 27
49 21 19 49 34 62 35 22 0 22 -2 22 -130z m204 107 c43 -43 46 -159 4 -212
-28 -36 -88 -35 -117 1 -39 50 -40 158 0 208 27 34 80 36 113 3z m-1268 -55
c32 -21 44 -95 24 -146 -10 -28 -46 -42 -79 -31 -42 13 -53 132 -15 170 16 16
51 20 70 7z m139 -87 c0 -78 -2 -90 -17 -93 -16 -3 -18 5 -18 62 0 66 0 66
-25 60 -34 -8 -33 14 3 43 48 40 57 29 57 -72z m359 -157 c18 -25 21 -94 6
-132 -8 -22 -16 -26 -49 -26 -49 0 -63 21 -63 90 0 66 15 90 57 90 24 0 39 -7
49 -22z m126 -68 c0 -83 -1 -90 -20 -90 -18 0 -20 7 -20 61 0 55 -2 60 -19 54
-33 -10 -36 17 -5 42 55 44 64 34 64 -67z"/>
<path d="M2379 2164 c-19 -23 -24 -161 -7 -194 20 -37 51 -32 65 10 34 101
-10 242 -58 184z"/>
<path d="M3209 2164 c-17 -21 -24 -150 -10 -187 14 -35 38 -44 59 -23 22 22
25 184 3 209 -17 21 -35 21 -52 1z"/>
<path d="M2921 1626 c-17 -20 -25 -126 -12 -172 12 -46 30 -59 56 -40 23 16
33 138 15 190 -12 38 -38 48 -59 22z"/>
<path d="M2069 1153 c-12 -31 -5 -121 10 -136 22 -22 41 14 41 77 0 82 -29
115 -51 59z"/>
<path d="M2462 1168 c-19 -19 -16 -133 4 -149 14 -11 18 -10 30 6 25 34 14
155 -14 155 -5 0 -13 -5 -20 -12z"/>
<path d="M3109 1159 c-14 -26 -7 -125 9 -141 23 -23 42 13 43 79 1 34 -2 66
-6 72 -10 18 -33 13 -46 -10z"/>
<path d="M2902 873 c-11 -27 -7 -122 5 -134 7 -7 19 -9 28 -5 24 9 18 149 -8
154 -9 2 -20 -5 -25 -15z"/>
<path d="M3286 874 c-9 -24 -7 -117 4 -134 16 -25 45 1 48 46 5 61 -6 104 -27
104 -11 0 -22 -7 -25 -16z"/>
<path d="M2050 775 c0 -40 4 -55 14 -55 16 0 26 21 26 55 0 34 -10 55 -26 55
-10 0 -14 -15 -14 -55z"/>
<path d="M2537 603 c-11 -11 -8 -101 4 -109 16 -10 29 15 29 57 0 35 -20 66
-33 52z"/>
</g>
</svg>
