<?xml version="1.0" standalone="no"?>
<!DOCTYPE svg PUBLIC "-//W3C//DTD SVG 20010904//EN"
 "http://www.w3.org/TR/2001/REC-SVG-20010904/DTD/svg10.dtd">
<svg version="1.0" xmlns="http://www.w3.org/2000/svg"
 width="552.000000pt" height="564.000000pt" viewBox="0 0 552.000000 564.000000"
 preserveAspectRatio="xMidYMid meet">

<g transform="translate(0.000000,564.000000) scale(0.100000,-0.100000)"
fill="#000000" stroke="none">
<path d="M2280 5630 c-345 -48 -646 -195 -885 -435 -126 -126 -204 -230 -280
-377 -52 -99 -134 -321 -135 -363 -1 -35 -14 -44 -91 -59 -231 -44 -420 -147
-583 -316 -131 -136 -210 -272 -260 -444 -110 -380 4 -796 293 -1069 131 -123
296 -215 478 -265 l98 -27 905 -3 c849 -2 907 -1 940 15 104 53 108 192 7 267
-28 21 -35 21 -935 26 l-907 5 -88 31 c-205 74 -358 209 -451 399 -46 93 -66
170 -73 285 -22 360 213 680 574 782 110 31 286 31 396 0 81 -23 162 -60 243
-112 80 -50 172 -34 221 39 29 43 31 113 3 158 -49 81 -222 167 -457 229 -9 2
-8 16 3 56 121 413 449 731 871 845 91 25 113 27 298 27 185 0 207 -2 298 -27
450 -121 794 -479 892 -927 13 -58 13 -66 -2 -75 -8 -5 -44 -28 -79 -50 -35
-23 -72 -51 -80 -64 -39 -55 -34 -142 9 -189 62 -67 140 -68 240 -3 215 140
505 156 742 42 210 -102 354 -275 418 -504 28 -98 57 -139 114 -158 71 -23
153 15 184 87 24 54 21 85 -23 219 -95 292 -323 537 -609 656 -144 59 -208 70
-416 76 l-192 5 -12 52 c-6 28 -27 96 -46 150 -177 510 -603 883 -1138 996
-114 24 -378 35 -485 20z"/>
<path d="M3605 3136 c-45 -19 -92 -79 -110 -138 -20 -68 -20 -257 0 -325 32
-107 101 -163 200 -163 140 1 204 87 213 285 8 180 -34 296 -121 336 -49 22
-138 24 -182 5z m109 -96 c49 -18 61 -61 61 -210 0 -118 -3 -139 -21 -170 -17
-30 -25 -35 -58 -35 -31 0 -43 6 -60 28 -19 26 -21 42 -21 170 0 172 10 204
72 226 1 1 13 -3 27 -9z"/>
<path d="M5120 3128 c-35 -18 -51 -35 -72 -78 -66 -133 -56 -381 19 -471 55
-66 166 -88 249 -50 75 34 112 113 121 258 10 158 -28 281 -104 333 -53 36
-151 40 -213 8z m147 -100 c26 -21 38 -85 38 -203 -1 -138 -16 -190 -59 -201
-36 -9 -69 1 -84 26 -33 54 -33 306 -1 359 24 38 72 46 106 19z"/>
<path d="M3104 3069 c-49 -39 -93 -74 -98 -79 -9 -9 40 -80 56 -80 6 0 32 18
58 40 26 22 49 40 51 40 2 0 2 -106 0 -235 l-3 -235 71 0 71 0 0 310 0 310
-59 0 c-58 0 -60 -1 -147 -71z"/>
<path d="M4639 3074 c-123 -96 -117 -87 -85 -128 15 -20 31 -36 36 -36 4 0 32
20 62 44 l53 43 -3 -238 -3 -239 66 0 65 0 0 310 0 310 -53 0 c-51 0 -58 -3
-138 -66z"/>
<path d="M4625 2196 c-90 -25 -135 -101 -150 -256 -9 -83 9 -206 37 -266 41
-88 134 -129 239 -104 64 16 111 60 135 132 26 72 26 291 1 357 -46 119 -142
169 -262 137z m97 -107 c28 -15 47 -66 54 -147 14 -153 -18 -263 -80 -270 -62
-7 -88 53 -88 206 0 122 13 185 45 207 25 18 41 19 69 4z"/>
<path d="M3101 2120 c-55 -44 -101 -83 -101 -86 0 -8 54 -74 62 -74 3 0 30 20
60 44 l53 43 -4 -238 -3 -239 71 0 71 0 -2 313 -3 312 -51 3 c-51 3 -53 2
-153 -78z"/>
<path d="M3601 2120 c-56 -44 -101 -83 -101 -88 0 -4 13 -23 29 -42 l29 -34
59 45 58 46 -3 -238 -3 -239 65 0 66 0 0 315 0 315 -49 0 c-47 0 -55 -4 -150
-80z"/>
<path d="M4125 2142 c-39 -31 -84 -68 -102 -82 l-32 -25 34 -40 33 -39 59 46
58 45 -3 -238 -3 -239 66 0 65 0 0 315 0 315 -52 -1 c-49 0 -58 -5 -123 -57z"/>
<path d="M4974 1356 c-71 -32 -98 -104 -92 -246 3 -73 8 -104 24 -130 58 -101
196 -108 255 -14 21 34 24 53 27 154 3 104 1 119 -20 159 -13 25 -35 53 -49
64 -34 25 -105 31 -145 13z m103 -93 c14 -21 18 -48 18 -128 0 -80 -4 -107
-18 -128 -22 -34 -61 -36 -81 -4 -36 54 -27 254 12 277 29 16 51 11 69 -17z"/>
<path d="M3073 1353 c-40 -8 -81 -59 -94 -117 -17 -77 -8 -214 17 -257 32 -55
80 -82 137 -76 102 9 141 71 141 222 0 113 -21 180 -68 210 -27 18 -94 27
-133 18z m92 -103 c10 -20 15 -58 15 -119 0 -129 -17 -162 -75 -147 -33 8 -48
68 -43 173 3 62 9 88 23 103 27 30 62 26 80 -10z"/>
<path d="M3769 1345 c-23 -10 -44 -31 -60 -58 -22 -38 -24 -54 -24 -157 0
-130 13 -166 76 -208 27 -19 43 -23 82 -19 102 9 141 71 142 222 0 155 -40
223 -138 231 -24 2 -57 -3 -78 -11z m108 -95 c8 -15 13 -64 13 -120 0 -56 -5
-105 -13 -120 -17 -33 -57 -38 -83 -9 -16 18 -19 36 -19 129 0 93 3 111 19
129 26 29 66 24 83 -9z"/>
<path d="M5328 1304 c-38 -30 -68 -58 -68 -62 1 -4 9 -17 20 -30 21 -26 39
-21 74 17 11 12 22 21 25 21 4 0 5 -76 3 -170 l-4 -170 51 0 51 0 0 225 0 225
-42 0 c-37 0 -52 -8 -110 -56z"/>
<path d="M3407 1294 c-67 -55 -70 -61 -39 -96 14 -16 17 -16 53 13 l39 31 0
-166 0 -166 50 0 50 0 0 220 0 220 -42 0 c-37 0 -52 -8 -111 -56z"/>
<path d="M4117 1294 c-67 -55 -70 -61 -39 -96 14 -16 17 -16 52 12 21 17 39
30 41 30 2 0 3 -74 1 -165 l-3 -165 50 0 51 0 0 220 0 220 -42 0 c-37 0 -52
-8 -111 -56z"/>
<path d="M4561 825 c-49 -42 -64 -98 -59 -217 6 -156 45 -208 155 -208 100 0
148 75 147 231 -1 92 -23 158 -65 194 -25 20 -41 25 -89 25 -48 0 -64 -5 -89
-25z m125 -66 c16 -18 19 -37 19 -134 0 -97 -3 -116 -19 -134 -24 -27 -48 -27
-72 0 -16 18 -19 37 -19 134 0 97 3 116 19 134 11 12 27 21 36 21 9 0 25 -9
36 -21z"/>
<path d="M4942 795 c-40 -31 -72 -59 -72 -63 0 -4 9 -18 19 -32 l20 -25 40 33
41 33 0 -171 0 -171 48 3 47 3 0 220 0 220 -36 3 c-30 3 -46 -5 -107 -53z"/>
<path d="M5271 825 c-49 -42 -64 -98 -59 -217 6 -156 45 -208 157 -208 48 0
57 3 91 38 32 32 39 47 50 110 20 119 -5 229 -62 277 -43 36 -133 36 -177 0z
m125 -66 c16 -18 19 -37 19 -134 0 -97 -3 -116 -19 -134 -24 -27 -48 -27 -72
0 -16 18 -19 37 -19 134 0 97 3 116 19 134 11 12 27 21 36 21 9 0 25 -9 36
-21z"/>
<path d="M3019 715 c-69 -37 -81 -224 -19 -287 52 -51 146 -32 169 34 19 54
14 178 -9 216 -31 50 -89 65 -141 37z m79 -58 c18 -21 25 -109 13 -154 -14
-50 -39 -63 -63 -33 -20 25 -25 130 -8 174 10 28 40 35 58 13z"/>
<path d="M3280 684 c-53 -42 -54 -43 -35 -68 15 -19 15 -19 38 2 13 12 26 22
30 22 4 0 7 -54 7 -121 l0 -120 33 3 32 3 3 158 3 157 -33 0 c-23 0 -47 -11
-78 -36z"/>
<path d="M3913 320 c-35 -14 -55 -55 -61 -125 -5 -73 11 -145 38 -170 10 -9
37 -19 59 -22 80 -11 121 45 121 164 0 127 -65 190 -157 153z m77 -65 c14 -17
18 -136 6 -172 -9 -29 -35 -37 -57 -17 -15 14 -19 32 -19 91 0 41 5 83 10 94
13 23 43 25 60 4z"/>
<path d="M4167 284 c-52 -40 -52 -41 -33 -67 13 -17 15 -16 45 9 l31 26 0
-126 0 -126 30 0 30 0 0 160 0 160 -28 0 c-18 0 -47 -14 -75 -36z"/>
</g>
</svg>
