<?xml version="1.0" standalone="no"?>
<!DOCTYPE svg PUBLIC "-//W3C//DTD SVG 20010904//EN"
 "http://www.w3.org/TR/2001/REC-SVG-20010904/DTD/svg10.dtd">
<svg version="1.0" xmlns="http://www.w3.org/2000/svg"
 width="824.000000pt" height="461.000000pt" viewBox="0 0 824.000000 461.000000"
 preserveAspectRatio="xMidYMid meet">

<g transform="translate(0.000000,461.000000) scale(0.100000,-0.100000)"
fill="#000000" stroke="none">
<path d="M1759 4599 c-484 -51 -883 -404 -1008 -894 l-11 -40 -80 -17 c-333
-69 -596 -343 -649 -678 -71 -438 233 -859 676 -935 76 -13 191 -15 755 -13
l667 3 30 29 c56 54 49 141 -16 183 -25 17 -75 18 -728 23 -695 5 -700 5 -759
27 -189 72 -333 226 -381 409 -8 32 -15 98 -15 147 0 169 49 287 170 407 131
132 271 187 450 177 109 -6 189 -30 277 -85 102 -63 186 -45 214 48 18 58 -7
101 -83 150 -67 43 -188 94 -250 105 -44 8 -44 11 3 135 57 149 190 320 324
415 262 186 606 227 898 105 213 -89 396 -264 493 -474 30 -66 74 -203 74
-233 0 -6 -26 -28 -59 -47 -71 -44 -91 -72 -91 -128 0 -50 19 -82 62 -104 42
-22 85 -13 155 30 169 104 389 113 568 25 154 -75 261 -207 314 -386 34 -114
106 -154 188 -103 71 43 64 150 -22 325 -81 165 -205 289 -370 371 -123 60
-221 84 -385 91 l-135 6 -23 80 c-57 203 -152 361 -311 517 -199 195 -418 298
-695 329 -105 12 -135 12 -247 0z"/>
<path d="M4670 3335 l0 -95 135 0 135 0 0 -410 0 -410 105 0 105 0 0 410 0
410 140 0 140 0 0 95 0 95 -380 0 -380 0 0 -95z"/>
<path d="M5846 3134 c-36 -11 -65 -31 -107 -73 l-58 -58 -6 51 c-11 88 -9 86
-76 86 l-59 0 0 -360 0 -360 89 0 89 0 4 203 c3 182 6 206 25 242 42 80 88
105 189 105 l64 0 0 90 0 90 -52 -1 c-29 0 -75 -7 -102 -15z"/>
<path d="M6160 2963 c1 -288 22 -377 111 -457 106 -95 289 -101 388 -12 l24
21 -6 -54 c-7 -60 -25 -92 -63 -118 -56 -36 -191 -33 -283 8 l-46 20 -51 -58
-51 -57 23 -18 c46 -37 151 -78 227 -89 219 -32 387 82 427 291 5 29 10 198
10 376 l0 324 -94 0 -95 0 -3 -207 c-2 -174 -6 -213 -20 -240 -56 -101 -221
-110 -280 -15 -22 35 -23 48 -26 250 l-4 212 -94 0 -94 0 0 -177z"/>
<path d="M2765 2687 c-16 -8 -38 -23 -47 -33 -63 -71 -74 -261 -22 -371 24
-50 67 -73 134 -73 118 0 164 67 165 240 0 92 -3 111 -25 154 -14 28 -36 58
-50 68 -34 25 -117 32 -155 15z m100 -91 c30 -30 43 -134 27 -219 -13 -70 -25
-87 -62 -87 -38 0 -49 17 -61 91 -14 90 -2 186 27 216 29 29 39 29 69 -1z"/>
<path d="M3946 2690 c-73 -23 -106 -95 -106 -234 0 -117 13 -161 61 -209 l39
-39 71 4 c67 4 73 6 104 40 42 46 59 123 52 235 -5 90 -31 151 -78 186 -31 22
-101 31 -143 17z m81 -85 c29 -20 43 -74 42 -160 0 -115 -28 -165 -81 -152
-36 9 -48 51 -48 164 0 110 17 156 60 162 3 1 15 -6 27 -14z"/>
<path d="M2373 2632 c-40 -31 -72 -60 -73 -64 0 -4 11 -19 24 -35 l24 -27 38
34 39 34 3 -182 2 -182 50 0 50 0 0 240 0 240 -42 0 c-37 -1 -53 -9 -115 -58z"/>
<path d="M3542 2629 l-72 -61 21 -29 c11 -16 23 -29 26 -29 3 0 22 14 43 30
21 17 40 30 42 30 2 0 2 -81 0 -180 l-4 -180 56 0 56 0 0 240 0 240 -47 0
c-44 -1 -55 -7 -121 -61z"/>
<path d="M4760 1665 l0 -505 100 0 100 0 0 210 0 210 195 0 195 0 0 -210 0
-210 100 0 100 0 0 505 0 505 -100 0 -100 0 0 -205 0 -205 -195 0 -195 0 0
205 0 205 -100 0 -100 0 0 -505z"/>
<path d="M7540 1665 l0 -506 93 3 92 3 3 144 3 144 51 -7 c28 -4 60 -13 71
-21 10 -7 57 -70 103 -139 l84 -126 101 0 101 0 -18 28 c-10 15 -55 83 -100
152 -45 69 -98 141 -118 160 l-36 34 34 36 c18 19 75 97 125 173 l91 137 -102
0 -103 0 -68 -104 c-87 -133 -103 -148 -167 -154 l-50 -5 0 277 0 276 -95 0
-95 0 0 -505z"/>
<path d="M3509 1947 c-58 -38 -74 -85 -74 -217 0 -103 3 -120 25 -165 33 -66
73 -87 154 -82 53 3 62 7 92 39 44 48 56 101 52 222 -3 116 -23 166 -78 204
-46 31 -124 31 -171 -1z m133 -97 c37 -73 18 -269 -27 -286 -29 -12 -63 13
-74 53 -14 49 -14 167 -1 215 19 67 73 76 102 18z"/>
<path d="M2371 1903 c-39 -31 -71 -59 -71 -62 0 -3 10 -19 23 -34 l22 -28 43
36 42 37 0 -181 0 -181 50 0 50 0 0 235 0 235 -44 0 c-37 0 -52 -7 -115 -57z"/>
<path d="M2755 1904 c-38 -31 -71 -59 -72 -62 -1 -4 9 -20 22 -37 l24 -29 28
25 c65 59 61 68 55 -131 l-5 -180 57 0 56 0 0 235 0 235 -47 0 c-43 0 -55 -6
-118 -56z"/>
<path d="M3132 1901 l-72 -59 26 -31 26 -32 44 36 44 36 0 -180 0 -181 50 0
50 0 0 235 0 235 -47 0 c-43 -1 -55 -7 -121 -59z"/>
<path d="M5976 1866 c-171 -72 -259 -281 -196 -465 53 -157 169 -243 330 -244
86 -1 154 24 206 74 l32 31 7 -51 7 -51 59 0 59 0 0 360 0 360 -59 0 -59 0 -7
-45 -6 -46 -31 26 c-61 51 -108 68 -198 72 -73 3 -93 0 -144 -21z m244 -177
c55 -31 84 -81 88 -154 5 -76 -20 -133 -76 -170 -168 -111 -368 89 -261 262
54 87 158 112 249 62z"/>
<path d="M6934 1872 c-101 -35 -186 -118 -225 -220 -17 -47 -20 -73 -17 -147
3 -79 8 -98 38 -153 98 -184 316 -249 501 -150 31 16 68 42 82 56 l26 27 -52
59 -52 58 -54 -33 c-47 -30 -63 -34 -121 -34 -55 0 -73 4 -107 27 -117 77
-106 269 19 334 15 8 54 14 88 14 58 0 97 -14 152 -52 15 -11 25 -6 68 37 27
27 50 57 50 66 0 24 -88 86 -155 110 -69 24 -172 24 -241 1z"/>
<path d="M3799 1315 c-14 -7 -31 -26 -38 -42 -19 -39 -25 -160 -12 -210 30
-112 173 -128 215 -23 20 50 21 168 2 214 -28 68 -104 95 -167 61z m98 -82
c18 -44 14 -163 -7 -188 -23 -28 -54 -14 -68 30 -15 44 -11 139 7 174 19 34
50 27 68 -16z"/>
<path d="M2321 1295 c-76 -65 -59 -283 25 -315 98 -38 164 29 164 165 0 80
-23 141 -61 160 -43 23 -93 19 -128 -10z m108 -66 c15 -43 14 -138 -2 -169
-16 -31 -46 -38 -64 -14 -16 22 -18 166 -3 195 17 31 56 24 69 -12z"/>
<path d="M2613 1277 c-28 -23 -52 -44 -52 -47 0 -3 6 -14 14 -24 15 -19 15
-19 45 2 16 12 30 22 32 22 2 0 2 -56 0 -125 l-3 -125 41 0 40 0 -2 168 -3
167 -30 2 c-22 2 -43 -8 -82 -40z"/>
<path d="M2868 1301 c-13 -11 -30 -37 -36 -59 -16 -53 -15 -155 2 -196 39 -93
150 -102 200 -16 17 28 21 52 21 115 -1 86 -17 131 -57 159 -31 22 -100 20
-130 -3z m102 -61 c15 -27 14 -163 0 -190 -15 -28 -51 -23 -67 10 -16 31 -17
126 -2 169 13 37 52 43 69 11z"/>
<path d="M3157 1273 l-59 -46 21 -20 21 -21 23 22 c13 12 26 22 30 22 4 0 7
-56 7 -125 l0 -125 35 0 35 0 0 170 0 170 -27 0 c-18 0 -49 -17 -86 -47z"/>
<path d="M4090 1284 c-66 -52 -66 -51 -45 -74 l18 -20 34 26 33 25 0 -130 0
-131 35 0 35 0 0 170 0 170 -32 0 c-23 0 -47 -12 -78 -36z"/>
<path d="M4752 513 l3 -498 97 -3 98 -3 2 317 3 317 145 -181 c80 -100 147
-181 151 -182 3 0 70 81 150 180 l144 181 3 -316 2 -315 100 0 100 0 0 500 0
500 -62 -1 -63 0 -187 -235 -187 -235 -187 235 -187 236 -64 0 -63 0 2 -497z"/>
<path d="M3540 932 c-60 -9 -90 -65 -90 -167 0 -119 35 -177 109 -179 85 -2
121 49 121 170 0 76 -15 129 -42 152 -21 17 -67 29 -98 24z m54 -74 c11 -16
16 -46 16 -98 0 -78 -16 -120 -45 -120 -29 0 -45 42 -45 120 0 78 16 120 45
120 8 0 21 -10 29 -22z"/>
<path d="M4070 927 c-54 -19 -75 -65 -75 -167 0 -105 20 -148 80 -169 35 -12
45 -11 77 2 55 23 73 64 73 167 0 62 -5 94 -18 117 -27 50 -79 69 -137 50z
m64 -62 c44 -45 25 -225 -24 -225 -19 0 -39 33 -46 75 -12 80 12 165 46 165 5
0 15 -7 24 -15z"/>
<path d="M3785 889 c-27 -23 -52 -43 -54 -45 -2 -2 4 -13 14 -24 18 -20 18
-20 52 6 l33 25 0 -130 0 -131 35 0 35 0 0 170 0 170 -32 0 c-23 -1 -48 -13
-83 -41z"/>
<path d="M2313 828 c-32 -16 -46 -59 -41 -132 5 -82 24 -106 83 -106 65 0 80
23 80 122 0 75 -2 81 -28 104 -30 26 -58 29 -94 12z m77 -108 c0 -78 -35 -117
-61 -69 -15 29 -7 128 12 140 21 14 49 -26 49 -71z"/>
<path d="M2513 804 c-18 -14 -33 -32 -33 -39 0 -23 20 -28 41 -9 19 17 19 15
19 -74 0 -91 0 -92 25 -92 l25 0 0 120 c0 118 0 120 -22 120 -13 0 -38 -12
-55 -26z"/>
<path d="M6231 724 c-69 -18 -108 -43 -159 -98 -53 -57 -70 -93 -88 -177 -57
-273 167 -493 442 -436 67 14 164 56 209 91 19 15 19 16 -30 66 l-50 50 -60
-21 c-79 -28 -206 -31 -253 -6 -37 20 -72 71 -72 104 l0 23 247 2 247 3 9 45
c10 58 -7 153 -39 207 -75 130 -241 191 -403 147z m172 -168 c39 -16 87 -70
87 -97 0 -18 -9 -19 -160 -19 l-160 0 11 28 c32 84 135 125 222 88z"/>
<path d="M2981 511 c-24 -24 -35 -78 -28 -139 8 -70 62 -108 122 -86 60 23 60
215 0 238 -32 12 -75 6 -94 -13z m79 -40 c5 -11 10 -41 10 -66 0 -78 -39 -116
-60 -59 -30 78 15 190 50 125z"/>
<path d="M3194 496 c-30 -27 -36 -37 -27 -47 9 -9 17 -9 35 3 l23 15 0 -91 c0
-90 0 -91 25 -91 l25 0 3 123 3 122 -24 0 c-13 0 -41 -15 -63 -34z"/>
</g>
</svg>
